<svg xmlns="http://www.w3.org/2000/svg" viewBox="0 0 161 157">
	<path d="M80.4993335,0 C124.952797,0 161,36.0345993 161,80.4874014 C161,116.048843 137.934109,146.218957 105.948731,156.861666 C101.925564,157.606722 100.448537,155.115648 100.448537,152.989772 C100.448537,151.070486 100.523188,144.730177 100.557847,138.004678 C122.953211,142.873534 127.678899,128.50821 127.678899,128.50821 C131.340807,119.205003 136.617048,116.731256 136.617048,116.731256 C143.920869,111.735781 136.066496,111.838409 136.066496,111.838409 C127.982836,112.404865 123.726384,120.133991 123.726384,120.133991 C116.546537,132.437415 104.894283,128.880072 100.300567,126.823503 C99.5780501,121.621438 97.4918154,118.069425 95.1896253,116.060839 C113.069923,114.025596 131.866032,107.124162 131.866032,76.2836313 C131.866032,67.4962326 128.72135,60.316236 123.571749,54.6796655 C124.407576,52.6510866 127.163006,44.4661304 122.791911,33.3795867 C122.791911,33.3795867 116.031977,31.2163911 100.648495,41.6298519 C94.2271579,39.8465151 87.3405837,38.952181 80.4993335,38.9215257 C73.6580832,38.952181 66.7661768,39.8465151 60.3328421,41.6298519 C44.9680232,31.2163911 38.2174208,33.3795867 38.2174208,33.3795867 C33.8356614,44.4661304 36.5924239,52.6510866 37.4282509,54.6796655 C32.2666529,60.316236 29.1432995,67.4962326 29.1432995,76.2836313 C29.1432995,107.197468 47.9754005,114.00427 65.9010226,115.996863 C63.0136204,118.4946 60.4408197,123.392779 60.4408197,130.901986 C60.4408197,141.671315 60.5341337,150.338758 60.5341337,152.989772 C60.5341337,155.131642 59.0851004,157.641376 55.0046119,156.851003 C23.0365639,146.196299 0,116.036848 0,80.4874014 C0,36.0345993 36.0418712,2.84111445e-14 80.4993335,0 Z M130.510313,115.562358 C130.307688,115.161173 130.640952,114.610711 131.226164,114.34681 C131.80871,114.073578 132.439247,114.188202 132.612544,114.598716 C132.801838,114.9999 132.473906,115.545031 131.890027,115.8076 C131.316812,116.082164 130.687609,115.963542 130.510313,115.562358 Z M127.249654,119.198339 C126.848404,118.838473 126.951049,118.093416 127.477607,117.525627 C128.005498,116.965836 128.733347,116.799231 129.129265,117.153766 C129.518518,117.514965 129.419872,118.265352 128.893314,118.826477 C128.384086,119.388934 127.633575,119.554206 127.249654,119.198339 Z M124.075645,123.833948 C123.571749,123.483412 123.571749,122.625064 124.063647,121.897335 C124.568876,121.188265 125.363378,120.877714 125.863275,121.221586 C126.36717,121.565458 126.36717,122.423806 125.873939,123.13954 C125.375376,123.855274 124.568876,124.176487 124.075645,123.833948 Z M119.727212,128.312283 C119.256643,127.831128 119.469932,126.903473 120.168454,126.255714 C120.861644,125.597292 121.806781,125.46001 122.253355,125.947829 C122.69593,126.434314 122.499971,127.355305 121.796117,128.004397 C121.108259,128.66815 120.168454,128.798768 119.727212,128.312283 Z M113.728454,130.912649 C113.53916,130.271554 114.136369,129.538493 115.045514,129.263929 C115.963991,128.977369 116.873136,129.275924 117.06243,129.910355 C117.246392,130.547451 116.650515,131.285844 115.740037,131.561741 C114.828226,131.829641 113.92308,131.543081 113.728454,130.912649 Z M107.140484,131.395136 C107.140484,130.735382 107.924322,130.202247 108.881457,130.220906 C109.843925,130.2369 110.599768,130.782031 110.599768,131.452448 C110.589104,132.105539 109.810598,132.642672 108.848131,132.621347 C107.890996,132.609351 107.117822,132.058889 107.140484,131.395136 Z M101.009754,130.351524 C101.131062,129.693103 101.982886,129.303914 102.934688,129.469186 C103.867829,129.641122 104.545022,130.306208 104.429046,130.969961 C104.310404,131.612389 103.445249,132.01224 102.510776,131.841637 C101.560306,131.664369 100.895111,130.999283 101.009754,130.351524 Z" id="Combined-Shape" fill="#222"></path>
</svg>