<svg height="41" viewbox="0 0 41 41" width="41" xmlns="http://www.w3.org/2000/svg">
	<path fill="#222" d="M1.994 21.86a1.174 1.174 0 0 1-.83-2.003l18.572-18.58a1.186 1.186 0 1 1 1.696 1.658L2.795 21.515c-.212.214-.5.338-.8.345zm13.213-.344L27.591 9.132a1.183 1.183 0 1 0-1.668-1.677L13.54 19.848a1.174 1.174 0 1 0 1.659 1.658l.01.01zm0 12.384l12.384-12.384a1.174 1.174 0 1 0-1.659-1.659L13.54 32.232a1.174 1.174 0 1 0 1.659 1.658l.01.01zm6.225 6.168l18.543-18.552a1.174 1.174 0 1 0-1.659-1.659l-18.58 18.562a1.183 1.183 0 1 0 1.696 1.65z"></path>
</svg>